<svg width="32" height="32" viewBox="0 0 32 32" fill="none" xmlns="http://www.w3.org/2000/svg">
<path fill-rule="evenodd" clip-rule="evenodd" d="M15.953 0.309998L15.891 0.368998C15.103 1.139 12.974 4.03 14.797 7.187H14.193C13.567 7.187 13.064 7.633 13.064 8.187C13.064 8.741 13.567 9.187 14.194 9.187H19.871C20.497 9.187 21 8.741 21 8.187C21 7.633 20.497 7.187 19.871 7.187H19.184C21.29 4.56 18.417 2.61 15.954 0.309998H15.953ZM15.857 0.399998C13.504 2.66 10.737 4.594 12.732 7.187H12.129C11.503 7.187 10.999 7.633 10.999 8.187C10.999 8.741 11.503 9.187 12.129 9.187H13.129C12.503 9.187 11.999 8.741 11.999 8.187C11.999 7.633 12.503 7.187 13.129 7.187H13.732C12.09 4.34 14.408 1.854 15.857 0.399998ZM12.498 10.187C12.417 15.507 11.903 19.522 10.871 23.687H11.871C12.903 19.522 13.417 15.507 13.498 10.187H12.498ZM14.562 10.187C14.481 15.507 13.968 19.522 12.935 23.687H21.175C20.139 19.521 19.608 15.507 19.521 10.187H14.562ZM10.621 24.687L10.619 24.697H10.617C9.517 24.697 8.617 25.597 8.617 26.697C8.617 27.063 8.725 27.401 8.898 27.697H8.625C7.496 27.697 6.5 28.496 6.5 29.576V29.812C6.5 29.898 6.502 29.906 6.502 29.837L6.5 30.47V31.69H7.5V30.47L7.502 29.837C7.502 29.906 7.5 29.898 7.5 29.812V29.576C7.5 28.496 8.496 27.696 9.625 27.696H9.898C9.71656 27.3938 9.61952 27.0485 9.617 26.696C9.617 25.597 10.517 24.696 11.617 24.696H11.619L11.621 24.686L10.621 24.687ZM12.685 24.687L12.683 24.697H12.681C11.582 24.697 10.681 25.597 10.681 26.697C10.681 27.063 10.789 27.401 10.963 27.697H10.689C9.56 27.697 8.564 28.496 8.564 29.576V29.812C8.564 29.898 8.566 29.906 8.566 29.837L8.564 30.47V31.69H25.5V29.572C25.5 28.492 24.504 27.692 23.375 27.692H23.168C23.341 27.397 23.449 27.058 23.449 26.692C23.449 25.593 22.549 24.692 21.449 24.692H21.428L21.426 24.682H12.686L12.685 24.687ZM24.973 29.792L25.049 29.832H24.909L24.973 29.794V29.792Z" fill="black"/>
</svg>
