<svg width="32" height="32" viewBox="0 0 32 32" fill="none" xmlns="http://www.w3.org/2000/svg">
<path fill-rule="evenodd" clip-rule="evenodd" d="M15.59 0.001V1.025H14.59V2.025H15.59V2.882L11.469 4.767L12.469 7.003H12.129C11.503 7.003 11 7.449 11 8.003C11 8.543 11.481 8.974 12.086 8.995H13.104C12.499 8.975 12.018 8.544 12.018 8.003C12.018 7.449 12.521 7.003 13.146 7.003H13.486L12.486 4.767L16.008 2.882L13.643 4.767L14.643 7.003H14.303C13.677 7.003 13.173 7.449 13.173 8.003C13.173 8.543 13.655 8.974 14.26 8.995H19.914C20.52 8.975 21 8.544 21 8.003C21 7.449 20.497 7.003 19.871 7.003H19.525L20.51 4.779L16.59 2.855V2.025H17.59V1.025H16.59V0H15.59V0.001ZM12.484 9.995C12.411 15.135 11.912 19.678 10.864 23.995H11.881C12.929 19.678 13.428 15.135 13.502 9.995H12.484ZM14.658 9.995C14.584 15.135 14.086 19.678 13.038 23.995H21.184C20.13 19.672 19.6 15.14 19.521 9.995H14.658ZM10.619 24.995L10.617 25.005C9.517 25.005 8.617 25.906 8.617 27.005C8.617 27.371 8.725 27.71 8.898 28.005H8.625C7.496 28.005 6.5 28.805 6.5 29.885V30.121C6.5 30.207 6.502 30.215 6.502 30.146L6.5 30.566V31.999H7.518V30.566L7.52 30.146C7.52 30.215 7.518 30.206 7.518 30.121V29.884C7.518 28.804 8.514 28.005 9.643 28.005H9.916C9.73451 27.7028 9.63747 27.3575 9.635 27.005C9.635 25.906 10.535 25.005 11.635 25.005L11.637 24.995H10.619ZM12.793 24.995L12.791 25.005C11.691 25.005 10.791 25.906 10.791 27.005C10.791 27.371 10.899 27.71 11.072 28.005H10.8C9.671 28.005 8.675 28.805 8.675 29.885V30.121C8.675 30.207 8.677 30.215 8.677 30.146L8.675 30.566V31.999H25.5V29.88C25.5 28.8 24.504 28 23.375 28H23.168C23.3494 27.6978 23.4465 27.3525 23.449 27C23.449 25.901 22.549 25 21.449 25H21.429L21.428 24.99H12.793V24.995Z" fill="black"/>
</svg>
