<svg width="33" height="33" viewBox="0 0 33 33" fill="none" xmlns="http://www.w3.org/2000/svg">
<path d="M17.6142 0.5C17.9142 0.855 18.2512 1.542 18.4392 2.344C18.4592 2.424 18.4672 2.504 18.4822 2.584H18.4652C17.5802 3.813 16.1212 4.536 14.5702 4.516C13.9892 6.029 12.4732 7.169 10.5822 7.514C9.16217 7.621 7.98517 8.548 7.65817 9.814C7.5782 10.1239 7.55249 10.4453 7.58217 10.764C7.59217 10.603 7.61217 10.448 7.64817 10.322C8.02617 9.035 9.26117 8.123 10.7202 8.061C12.6702 7.77 14.2622 6.65 14.9082 5.117C16.4982 5.189 17.5522 4.594 18.5002 3.363C18.0972 5.442 15.4842 5.852 15.4842 5.852C15.4842 5.852 14.4662 7.656 12.9572 8.229C11.7632 8.682 10.3652 8.959 9.60917 9.373C8.45917 10.005 8.08917 10.857 8.03917 12.059C8.21917 12.335 8.46517 12.572 8.73817 12.785C8.79034 12.6767 8.8798 12.5907 8.99017 12.543C9.87117 12.123 10.6842 11.639 11.4162 11.103C11.506 11.0356 11.6159 11.0003 11.7282 11.003C11.8331 11.0056 11.9345 11.0411 12.0181 11.1045C12.1017 11.1679 12.1632 11.256 12.194 11.3563C12.2247 11.4567 12.2232 11.5641 12.1894 11.6635C12.1557 11.7628 12.0916 11.8491 12.0062 11.91C11.2932 12.432 10.5062 12.895 9.67217 13.31C10.7742 13.696 12.0352 13.51 12.9512 12.78C12.9912 12.743 13.0082 12.725 13.0762 12.658C14.8562 13.423 17.0492 13.283 18.6362 12.342L18.6912 12.311C18.9652 12.144 18.7872 12.245 18.7872 12.245L18.7302 12.327C17.7462 13.602 17.6802 14.637 14.0722 15.546C10.4632 16.455 9.10017 20.364 9.82817 23.532H10.8772C10.1502 20.365 11.5132 16.966 15.1212 16.058C18.7302 15.148 18.7922 13.604 19.7772 12.329L19.8282 12.255L20.7362 11.825C19.7872 19.005 11.7262 14.005 11.7262 23.53L11.7322 24.01H20.5882V23.507H22.7482C22.8982 23.18 23.0332 22.848 23.1642 22.515L26.6212 22.505C27.9982 15.453 25.5132 6.971 21.0562 3.038L20.9362 2.95C20.2622 1.782 19.1062 0.865 17.6132 0.505L17.6142 0.5ZM18.1952 0.89C19.9082 2.228 20.3292 4.055 18.7202 4.926L18.4512 4.996C19.6622 2.617 18.3882 1.313 18.1952 0.89ZM16.9312 7.008C16.9432 7.00757 16.9552 7.00757 16.9672 7.008H17.9672C18.0998 7.008 18.227 7.06068 18.3207 7.15445C18.4145 7.24821 18.4672 7.37539 18.4672 7.508C18.4672 7.64061 18.4145 7.76779 18.3207 7.86155C18.227 7.95532 18.0998 8.008 17.9672 8.008H16.9672C16.8346 8.01277 16.7055 7.96467 16.6083 7.87428C16.5112 7.78389 16.4539 7.65861 16.4492 7.526C16.4444 7.39339 16.4925 7.26432 16.5829 7.16717C16.6733 7.07003 16.7986 7.01277 16.9312 7.008ZM10.7052 25.006C9.60517 25.006 8.70517 25.906 8.70517 27.006C8.70517 27.372 8.81317 27.71 8.98617 28.006H8.71417C7.58417 28.006 6.58917 28.805 6.58917 29.885V30.397L6.59117 30.67L6.58917 30.996V32H7.58917V30.996L7.59117 30.67L7.58917 30.397V29.885C7.58917 28.805 8.58517 28.006 9.71417 28.006H9.98717C9.80569 27.7038 9.70864 27.3585 9.70617 27.006C9.70617 25.906 10.6062 25.006 11.7062 25.006H10.7052ZM12.7052 25.006C11.6052 25.006 10.7052 25.906 10.7052 27.006C10.7052 27.372 10.8132 27.71 10.9862 28.006H10.7142C9.58417 28.006 8.58917 28.805 8.58917 29.885V30.397L8.59117 30.67L8.58917 30.996V32H25.5892V29.887C25.5892 28.807 24.5912 28.008 23.4622 28.008H23.2572C23.4383 27.7057 23.535 27.3604 23.5372 27.008C23.5372 25.909 22.6372 25.008 21.5372 25.008H12.7062L12.7052 25.006Z" fill="black"/>
</svg>
