<svg width="32" height="32" viewBox="0 0 32 32" fill="none" xmlns="http://www.w3.org/2000/svg">
<path fill-rule="evenodd" clip-rule="evenodd" d="M16 2.74652C15.337 2.74652 14.7011 3.00991 14.2322 3.47875C13.7634 3.9476 13.5 4.58348 13.5 5.24652C13.5006 5.63227 13.5905 6.01265 13.7626 6.35788C13.9347 6.70311 14.1843 7.00384 14.492 7.23652H13.5C12.946 7.23652 12.5 7.68252 12.5 8.23652C12.5 8.74352 12.879 9.14152 13.365 9.20952V9.21952H14.365V9.20952C14.1271 9.18033 13.9081 9.06541 13.7488 8.8863C13.5896 8.70719 13.5011 8.47617 13.5 8.23652C13.5 7.68252 13.946 7.23652 14.5 7.23652H15.022C14.004 5.84852 14.002 4.00852 16.141 2.76052C16.093 2.76052 16.047 2.74652 16 2.74652ZM16.147 2.76252C14.826 3.91852 14.46 5.62752 15.881 7.26252H15.373C15.1334 7.29016 14.9123 7.40464 14.7514 7.5843C14.5905 7.76397 14.5011 7.99636 14.5 8.23752C14.5 8.74352 14.879 9.14152 15.365 9.20952V9.21952H18.61C19.109 9.16252 19.5 8.75652 19.5 8.24152C19.5 7.68752 19.054 7.24152 18.5 7.24152H17.51C17.9161 6.93341 18.2181 6.50819 18.3751 6.02317C18.5321 5.53816 18.5366 5.01667 18.3881 4.529C18.2396 4.04132 17.9451 3.61091 17.5444 3.29577C17.1436 2.98063 16.6559 2.79591 16.147 2.76652V2.76252ZM13.363 10.2155C13.386 14.3315 13.06 17.8855 12.291 21.2465H13.291C14.06 17.8855 14.386 14.3315 14.363 10.2165H13.363V10.2155ZM15.363 10.2155C15.386 14.3315 15.06 17.8855 14.291 21.2465H19.707C18.934 17.8835 18.59 14.3305 18.611 10.2165H15.363V10.2155ZM12.055 22.2465L12.053 22.2565H11.692C10.693 22.2565 10 23.2125 10 24.2565C10 24.6135 10.085 24.9565 10.23 25.2565H9.854C8.83 25.2565 8 26.1095 8 27.1365V27.9095L8.002 27.9195V27.9295L8 28.2895V29.2535H9V28.2905L9.002 27.9295V27.9195L9 27.9095V27.1355C9 26.1085 9.83 25.2555 10.854 25.2555H11.231C11.0801 24.9437 11.0015 24.6019 11.001 24.2555C11.001 23.2125 11.693 22.2555 12.691 22.2555H13.053L13.055 22.2455L12.055 22.2465ZM14.055 22.2465L14.053 22.2565H13.692C12.693 22.2565 12 23.2125 12 24.2565C12 24.6135 12.085 24.9565 12.23 25.2565H11.854C10.83 25.2565 10 26.1085 10 27.1365V27.9095L10.002 27.9195V27.9295L10 28.2895V29.2535H24V27.1395C24 26.1125 23.169 25.2595 22.145 25.2595H21.768C21.9197 24.9479 21.999 24.6061 22 24.2595C22 23.2165 21.305 22.2595 20.307 22.2595H19.945L19.943 22.2495H14.055V22.2465Z" fill="black"/>
</svg>
