<svg width="32" height="32" viewBox="0 0 32 32" fill="none" xmlns="http://www.w3.org/2000/svg">
<path d="M16.014 0.252014C15.8385 0.252147 15.6661 0.298398 15.5141 0.386169C15.3622 0.47394 15.2359 0.600129 15.1481 0.752075C15.0603 0.904021 15.014 1.07639 15.0138 1.25189C15.0136 1.42739 15.0595 1.59987 15.147 1.75201H14.74C14.145 1.75466 13.5753 1.99288 13.1555 2.41455C12.7357 2.83622 12.5 3.40701 12.5 4.00201C12.5 4.08801 12.516 4.16901 12.526 4.25201H12.129C11.503 4.25201 11 4.69801 11 5.25201C11 5.80601 11.503 6.25201 12.13 6.25201H12C12.5 6.75201 12.5 8.75201 12 9.25201H12.041C11.459 9.29201 11.001 9.71002 11.001 10.236C11.001 10.79 11.503 11.236 12.129 11.236H12.453V11.248H13.842V11.236H13.518C12.892 11.236 12.388 10.79 12.388 10.236C12.388 9.71002 12.848 9.29301 13.43 9.25201H13.389C13.889 8.75201 13.889 6.75201 13.389 6.25201H13.518C12.892 6.25201 12.388 5.80601 12.388 5.25201C12.388 4.69801 12.892 4.25201 13.518 4.25201H13.914C13.905 4.16901 13.889 4.08801 13.889 4.00201C13.889 2.76501 14.375 1.75201 15.609 1.75201H15.502C15.1 1.18301 15.365 0.467024 16.067 0.262024C16.048 0.261024 16.032 0.252014 16.014 0.252014ZM16.069 0.263977C15.55 0.428977 15.563 1.15901 16 1.75201H16.016C16.016 1.75201 14.824 2.32801 14.889 4.00201C14.889 4.08801 14.905 4.16901 14.914 4.25201H14.518C14.361 4.25201 14.213 4.28002 14.078 4.33002C13.673 4.48202 13.388 4.83701 13.388 5.25201C13.388 5.80601 13.892 6.25201 14.518 6.25201H14.388C14.888 6.75201 14.888 8.75201 14.388 9.25201H14.43C13.848 9.29301 13.389 9.71002 13.389 10.236C13.389 10.791 13.892 11.236 14.518 11.236H14.842V11.249H19.602V11.236H19.869C20.495 11.236 21 10.791 21 10.236C21 9.71002 20.54 9.29401 19.957 9.25201H20C19.5 8.75201 19.5 6.75201 20 6.25201H19.87C20.495 6.25201 21 5.80601 21 5.25201C21 4.69801 20.495 4.25201 19.87 4.25201H19.475C19.484 4.16901 19.5 4.08801 19.5 4.00201C19.4995 3.40682 19.2634 2.83604 18.8432 2.41443C18.4231 1.99282 17.8532 1.75466 17.258 1.75201H16.881C16.9655 1.60442 17.0107 1.43763 17.0124 1.26758C17.0141 1.09753 16.9722 0.929877 16.8906 0.78064C16.8091 0.631402 16.6907 0.505546 16.5466 0.4151C16.4026 0.324654 16.2388 0.272616 16.069 0.263977ZM12.397 12.248C12.193 16.525 11.703 20.276 10.865 23.748H11.74C12.578 20.276 13.068 16.525 13.272 12.248H12.397ZM14.272 12.248C14.068 16.525 13.578 20.276 12.74 23.748H21.182C20.35 20.278 19.878 16.526 19.66 12.248H14.272ZM10.619 24.748L10.617 24.758C9.517 24.758 8.617 25.659 8.617 26.758C8.617 27.124 8.725 27.462 8.899 27.758H8.625C7.496 27.758 6.5 28.558 6.5 29.638V30.06L6.502 30.074L6.5 30.566V31.748H7.375V30.566L7.377 30.074C7.377 30.064 7.375 30.063 7.375 30.06V29.636C7.375 28.556 8.371 27.757 9.5 27.757H9.774C9.59216 27.4549 9.49477 27.1096 9.492 26.757C9.492 25.658 10.392 24.757 11.492 24.757L11.494 24.747L10.619 24.748ZM12.494 24.748L12.492 24.758C11.392 24.758 10.492 25.659 10.492 26.758C10.492 27.124 10.6 27.462 10.774 27.758H10.5C9.371 27.758 8.375 28.558 8.375 29.638V30.06L8.377 30.074L8.375 30.566V31.747H25.5V29.629C25.5 28.549 24.502 27.749 23.373 27.749H23.168C23.3494 27.4468 23.4465 27.1014 23.449 26.749C23.449 25.651 22.549 24.749 21.449 24.749H21.428L21.426 24.739H12.494V24.748Z" fill="black"/>
</svg>
