<svg width="32" height="32" viewBox="0 0 32 32" fill="none" xmlns="http://www.w3.org/2000/svg">
<path fill-rule="evenodd" clip-rule="evenodd" d="M11.311 0.998475C11.187 0.998739 11.0681 1.04813 10.9804 1.13584C10.8927 1.22355 10.8433 1.34244 10.843 1.46648V6.15247C10.843 6.41147 11.053 6.62148 11.311 6.62148H12.729C12.733 7.09148 12.733 7.55648 12.731 8.02148H12.372C11.785 8.02148 11.312 8.44147 11.312 8.96147C11.312 9.48047 11.785 9.89848 12.372 9.89848H13.31C12.723 9.89848 12.249 9.48048 12.249 8.96048C12.249 8.44048 12.723 8.02148 13.309 8.02148H13.669C13.671 7.55648 13.671 7.09148 13.667 6.62148C13.6053 6.62148 13.5443 6.60931 13.4873 6.58568C13.4303 6.56205 13.3786 6.52741 13.335 6.48375C13.2915 6.4401 13.2569 6.38828 13.2334 6.33126C13.2099 6.27424 13.1979 6.21315 13.198 6.15147V1.46748C13.198 1.45148 13.2 1.43748 13.202 1.42048C13.203 1.40469 13.205 1.38899 13.208 1.37348L13.22 1.32848C13.2249 1.31399 13.2302 1.29965 13.236 1.28548C13.242 1.27148 13.247 1.25748 13.255 1.24548C13.262 1.23148 13.272 1.21748 13.28 1.20548C13.2954 1.17944 13.3146 1.15584 13.337 1.13548C13.3641 1.11084 13.3928 1.08812 13.423 1.06748C13.3542 1.02455 13.2751 1.00105 13.194 0.999475H11.312L11.311 0.998475ZM15.056 0.998475C14.9315 0.998209 14.812 1.04734 14.7237 1.13507C14.6354 1.22281 14.5855 1.342 14.585 1.46648V2.86548H14.135V6.15247C14.135 6.41047 14.346 6.62048 14.605 6.62148C14.608 7.09148 14.608 7.55648 14.606 8.02148H14.247C13.66 8.02148 13.187 8.44147 13.187 8.96147C13.187 9.48047 13.66 9.89848 14.247 9.89848H19.63C20.217 9.89848 20.688 9.48048 20.688 8.96048C20.688 8.44048 20.217 8.02148 19.63 8.02148H19.286C19.283 7.55648 19.282 7.09148 19.286 6.62148H20.704C20.964 6.62148 21.173 6.41148 21.173 6.15147V1.46748C21.1727 1.34326 21.1232 1.22423 21.0353 1.13649C20.9474 1.04875 20.8282 0.999475 20.704 0.999475H18.843C18.583 0.999475 18.373 1.20948 18.374 1.46948L18.382 2.86648H17.432V1.46648C17.4312 1.34286 17.3818 1.22454 17.2944 1.13713C17.2069 1.04972 17.0886 1.00026 16.965 0.999475H15.057L15.056 0.998475ZM13.433 1.07248C13.4803 1.09807 13.5214 1.13395 13.553 1.17748C13.5196 1.13561 13.4789 1.10005 13.433 1.07248ZM13.661 1.45748L13.657 2.86348H13.663V1.46648L13.661 1.45748ZM12.661 10.8355C12.508 15.5095 12.039 19.8415 11.179 23.4955H12.116C12.976 19.8415 13.446 15.5095 13.599 10.8355H12.661ZM14.536 10.8355C14.383 15.5095 13.914 19.8415 13.054 23.4955H20.866C20.003 19.8405 19.517 15.5085 19.356 10.8355H14.536ZM10.954 24.4335L10.952 24.4435C10.4553 24.4453 9.97945 24.6435 9.62822 24.9947C9.27698 25.3459 9.07885 25.8218 9.077 26.3185C9.077 26.6615 9.178 26.9785 9.341 27.2555H9.085C8.026 27.2555 7.091 28.0005 7.091 29.0135V29.2365C7.091 29.3165 7.093 29.3245 7.093 29.2595L7.091 29.9875V30.9975H8.028V29.9875L8.03 29.2595C8.03 29.3245 8.028 29.3165 8.028 29.2365V29.0135C8.028 28.0015 8.964 27.2525 10.022 27.2525H10.28C10.1099 26.969 10.0191 26.6451 10.017 26.3145C10.0183 25.8179 10.216 25.3421 10.5669 24.9908C10.9178 24.6395 11.3935 24.4413 11.89 24.4395L11.892 24.4295H10.954V24.4335ZM12.829 24.4335L12.827 24.4435C12.3305 24.4453 11.8548 24.6435 11.5039 24.9948C11.153 25.3461 10.9553 25.8219 10.954 26.3185C10.954 26.6615 11.054 26.9785 11.218 27.2555H10.96C9.901 27.2555 8.966 28.0055 8.966 29.0175V29.2405C8.966 29.3205 8.968 29.3285 8.968 29.2635L8.966 29.9915V31.0015H24.909V29.0195C24.909 28.0065 23.974 27.2575 22.915 27.2575H22.724C22.886 26.9805 22.987 26.6635 22.987 26.3205C22.9857 25.8236 22.7877 25.3475 22.4364 24.9961C22.085 24.6448 21.6089 24.4468 21.112 24.4455H21.092L21.091 24.4355H12.829V24.4335Z" fill="black"/>
</svg>
